<svg xmlns="http://www.w3.org/2000/svg" width="256" height="256"><path fill-opacity=".016" d="M0 128.004v128.004l128.25-.254 128.25-.254.254-127.75L257.008 0H0v128.004m.485.496c0 70.4.119 99.053.265 63.672.146-35.38.146-92.98 0-128C.604 29.153.485 58.1.485 128.5" fill-rule="evenodd"/><path fill-opacity=".099" d="M23.25 9.13c-.986 1.001-1.247 25.507-1.235 115.82.009 63.003.391 115.142.85 115.866.68 1.073 12.748 1.244 65.235.923l64.4-.393 12.385-2.708c21.969-4.803 30.954-8.768 44.37-19.58 15.388-12.402 26.448-30.036 31.747-50.616 4.229-16.42 5.679-47.384 3.112-66.442-6.163-45.771-29.161-76.685-65.355-87.85-17.075-5.267-19.752-5.444-89.259-5.881-51.66-.325-65.257-.149-66.25.861m32.967 73.561c.169 31.856.34 36.641.783 21.809.312-10.45.664-16.93.783-14.4L58 94.699l4.75-.388c2.612-.214 5.537-.554 6.5-.756.963-.202 1.75-.072 1.749.289 0 .568 4.08.566 24.251-.01 3.297-.094 3.773-.422 3.941-2.72.106-1.438.47 1.661.809 6.886.514 7.914.649 6.373.809-9.231.189-18.522.216-18.737 2.441-19.281 1.237-.302 14.625-.423 29.75-.269l27.5.281.532 20c.502 18.857.554 19.286.918 7.5.212-6.875.563-10.812.778-8.75.276 2.632.896 3.787 2.082 3.873 9.115.667 41.208.182 41.294-.623.058-.55.735.8 1.503 3l1.398 4-.588-4c-.323-2.2-1.817-7.175-3.32-11.056-7.334-18.94-22.181-32.54-42.104-38.57-7.274-2.202-8.946-2.278-57.243-2.63L56 41.881l.217 40.81M209.158 101c0 1.375.227 1.938.504 1.25.278-.687.278-1.812 0-2.5-.277-.687-.504-.125-.504 1.25m.921 6.583c.048 1.165.285 1.402.604.605.289-.722.253-1.585-.079-1.917-.332-.332-.568.258-.525 1.312m-130.329 1.16c3.987.189 10.513.189 14.5 0 3.987-.19.725-.346-7.25-.346s-11.237.156-7.25.346" fill-rule="evenodd"/><path fill-opacity=".217" d="M22.643 11.199c-1.123 4.196-.734 226.762.4 228.882 1.017 1.9 2.508 1.947 59.25 1.835 32.014-.063 62.032-.546 66.707-1.073 12.058-1.359 30.005-5.386 37.829-8.486 24.192-9.588 45.854-34.258 53.162-60.542 6.741-24.248 6.714-64.053-.063-90.293-8.072-31.26-30.153-56.562-57.622-66.029-17.112-5.898-16.035-5.824-90.426-6.224l-68.62-.37-.617 2.3M56.202 110c.112 37.675.471 62.875.798 56 .327-6.875.686-11.275.797-9.777l.203 2.723 15.25-.414c8.388-.227 18.935-.44 23.438-.473 7.857-.057 8.181-.15 8.023-2.309-.09-1.238-7.262-11.875-15.937-23.639C80.098 120.347 73 110.334 73 109.861c0-.474 6.29-.861 13.978-.861h13.979l.271-19.25.272-19.25 29.75-.265L161 69.97V109h13.535c13.073 0 13.5.066 12.5 1.935-.569 1.064-7.35 10.757-15.068 21.541-7.719 10.784-13.786 20.007-13.484 20.497.302.489.023 1.214-.621 1.612-.731.452-.903.291-.457-.43 1.604-2.596-.433-.921-2.548 2.095-1.253 1.787-1.565 2.679-.693 1.981 2.011-1.609 52.633-2.304 53.192-.731.195.55 1.207-2.6 2.249-7 2.873-12.131 2.67-42.61-.364-54.709-5.645-22.508-16.712-37.463-34.264-46.303-13.497-6.797-13.253-6.77-68.728-7.409l-50.25-.579.203 68.5m49.708 46.832c.54 1.008 1.766 2.47 2.727 3.25 1.08.878.838.179-.634-1.832-2.626-3.588-3.611-4.255-2.093-1.418m44.962 4.918c-1.243 1.586-1.208 1.621.378.378 1.666-1.307 2.195-2.128 1.372-2.128-.207 0-.995.787-1.75 1.75m-40.872.628c0 .207.787.995 1.75 1.75 1.586 1.243 1.621 1.208.378-.378-1.307-1.666-2.128-2.195-2.128-1.372m94.624 1.161c-.965 2.514-.681 3.163.498 1.136.584-1.004.851-2.036.593-2.293-.257-.258-.749.263-1.091 1.157m-56.752 2.211c-1.243 1.586-1.208 1.621.378.378 1.666-1.307 2.195-2.128 1.372-2.128-.207 0-.995.787-1.75 1.75" fill-rule="evenodd"/><path fill-opacity=".989" d="M23 125.053v116.053l65.75-.365 65.75-.366 12.394-2.724c21.985-4.833 35.017-11.489 48.174-24.604 15.434-15.384 24.747-35.029 27.993-59.047 1.636-12.102 1.66-43.952.042-54.906-6.784-45.943-30.97-75.836-69.182-85.507C157.375 9.4 149.717 9.006 84.75 9.003L23 9v116.053m32.002-25.371c.002 32.35.298 69.281.66 82.068l.657 23.25 44.091-.003c46.751-.004 54.387-.581 68.09-5.148 19.287-6.428 36.057-25.277 41.009-46.095 4.156-17.469 3.937-42.726-.523-60.42-5.033-19.969-17.433-36.097-33.986-44.206-14.776-7.238-16.282-7.404-71.25-7.86L55 40.864l.002 58.818m46.769-9.932l-.271 19.75-14.088.5-14.089.5 28.589 38.662c26.455 35.777 28.708 38.537 30.2 37 3.51-3.619 54.888-75.185 54.888-76.455 0-.389-6.075-.707-13.5-.707H160V70h-57.958l-.271 19.75" fill-rule="evenodd"/></svg>