<svg xmlns="http://www.w3.org/2000/svg" width="256" height="256"><path fill-opacity=".016" d="M0 128.004v128.004l128.25-.254 128.25-.254.254-127.75L257.008 0H0v128.004m.485.496c0 70.4.119 99.053.265 63.672.146-35.38.146-92.98 0-128C.604 29.153.485 58.1.485 128.5" fill-rule="evenodd"/><path fill-opacity=".091" d="M31.246 122.25L31.5 230.5H92c59.381 0 60.703-.043 71.5-2.312 6.05-1.271 14.063-3.372 17.806-4.669 25.354-8.782 46.962-33.579 53.645-61.562 6.05-25.329 4.943-61.331-2.624-85.331-9.086-28.82-28.882-49.244-55.769-57.538-15.344-4.734-21.152-5.08-85.312-5.084L30.991 14l.255 108.25m24.971-41c.173 31.459.329 35.479.783 20.25.312-10.45.664-17.143.783-14.873L58 90.754l16.75-.278c9.213-.154 18.408-.323 20.434-.377 3.22-.087 3.736-.445 4.1-2.849.229-1.513.581 2.425.783 8.75.332 10.416.416 9.709.9-7.5l.533-19h59l.532 20 .532 20 .393-14.5c.216-7.975.564-12.61.773-10.301l.38 4.199 20.942-.172c20.487-.168 20.931-.215 20.455-2.199-.268-1.115.203-.677 1.046.973l1.533 3-.614-2.958c-2.72-13.098-17.739-31.196-31.472-37.923-14.237-6.974-20.134-7.591-72.75-7.606L56 42l.217 39.25M207.17 92c.016.825.39 2.625.83 4 .644 2.01.806 2.108.83.5.016-1.1-.357-2.9-.83-4-.527-1.225-.848-1.419-.83-.5m1.909 8.583c.048 1.165.285 1.402.604.605.289-.722.253-1.585-.079-1.917-.332-.332-.568.258-.525 1.312m-129.329 8.16c3.987.189 10.513.189 14.5 0 3.987-.19.725-.346-7.25-.346s-11.237.156-7.25.346" fill-rule="evenodd"/><path fill-opacity=".281" d="M31.461 15.25c-.262.688-.36 49.4-.219 108.25l.258 107 60-.015 60-.015 12.734-2.738c22.795-4.9 34.326-10.86 47.766-24.686 13.437-13.824 21.393-30.358 24.629-51.18 1.983-12.767 2.261-42.191.503-53.366-4.13-26.254-13.052-45.371-27.833-59.641-14.457-13.958-30.037-20.919-53.273-23.806-12.892-1.602-123.947-1.426-124.565.197M56.2 109c.111 37.125.449 62.1.751 55.5.302-6.6.774-10.879 1.049-9.509l.5 2.491 15.5-.408c31.761-.835 31.228-.865 33.835 1.926 2.238 2.395 2.232 2.354-.13-1-1.356-1.925-9.72-13.327-18.586-25.338C80.254 120.651 73 110.414 73 109.912c0-.506 6.223-.912 13.978-.912h13.979l.271-19.25.272-19.25 29.75-.265L161 69.97V109h13.535c13.073 0 13.5.066 12.5 1.935-.569 1.064-7.35 10.757-15.068 21.541-7.76 10.843-13.726 20.105-13.346 20.72.4.647.236.834-.39.447-.593-.367-2.05.801-3.237 2.595l-2.159 3.262 2.338-2.71c1.697-1.966 2.745-2.459 3.82-1.794.852.526 11.374.692 24.745.389 22.012-.499 23.265-.43 23.325 1.294.127 3.636 1.96-2.848 3.556-12.575 1.929-11.76 1.348-35.819-1.137-47.104-3.532-16.039-12.649-32.134-22.707-40.084-2.85-2.253-8.239-5.635-11.975-7.517-13.091-6.592-14.051-6.694-69.051-7.327l-49.75-.572.201 67.5m150.879 44.583c.048 1.165.285 1.402.604.605.289-.722.253-1.585-.079-1.917-.332-.332-.568.258-.525 1.312m-56.207 8.167c-1.243 1.586-1.208 1.621.378.378 1.666-1.307 2.195-2.128 1.372-2.128-.207 0-.995.787-1.75 1.75m-40.872.628c0 .207.787.995 1.75 1.75 1.586 1.243 1.621 1.208.378-.378-1.307-1.666-2.128-2.195-2.128-1.372" fill-rule="evenodd"/><path fill-opacity=".988" d="M32.246 122.165L32.5 230.5l50 .287c29.78.171 54.853-.144 62-.778 13.71-1.218 32.301-5.116 40.776-8.55 13.431-5.442 27.835-17.722 36.805-31.377 11.011-16.764 14.793-31.687 15.606-61.582.476-17.476.276-21.573-1.586-32.462-7.784-45.528-31.371-71.39-72.659-79.666-6.57-1.317-18.609-1.674-69.696-2.067l-61.755-.475.255 108.335m22.756-29.99c.001 28.229.298 65.163.661 82.075l.66 30.75 44.588-.011c42.98-.01 45.009-.096 56.234-2.385 22.908-4.673 37.162-15.342 46.895-35.104 5.037-10.227 6.744-17.064 8.051-32.244 1.21-14.057.083-29.278-3.105-41.922-5.033-19.969-17.433-36.097-33.986-44.206-14.723-7.213-16.287-7.385-71.25-7.858L55 40.85l.002 51.325m46.769-2.425l-.271 19.75-14.104.5-14.104.5 28.604 38.667c26.442 35.745 28.725 38.542 30.204 37 3.519-3.667 54.9-75.061 54.9-76.284 0-.486-6.075-.883-13.5-.883H160V70h-57.958l-.271 19.75" fill-rule="evenodd"/></svg>